<svg width="56" height="28" viewBox="0 0 56 28" fill="none" xmlns="http://www.w3.org/2000/svg">
<path d="M3.34062 21.5749V0.874921H0.0106201V21.5749H3.34062Z" fill="black"/>
<path d="M8.22382 4.35492C9.33382 4.35492 10.1438 3.54492 10.1438 2.46492C10.1438 1.35492 9.33382 0.544922 8.22382 0.544922C7.11382 0.544922 6.30382 1.35492 6.30382 2.46492C6.30382 3.54492 7.11382 4.35492 8.22382 4.35492ZM9.87382 21.5749V6.69492H6.54382V21.5749H9.87382Z" fill="black"/>
<path d="M21.447 27.4549C24.957 27.4549 27.597 25.6249 27.597 21.4549V6.69492H24.417V8.52492C23.277 7.11492 21.507 6.39492 19.557 6.39492C15.417 6.39492 12.027 9.69492 12.027 13.9249C12.027 18.1849 15.177 21.4849 19.527 21.4849C21.477 21.4849 23.217 20.7349 24.357 19.4149V21.6049C24.357 23.6149 23.337 24.4549 21.537 24.4549H14.187V27.4549H21.447ZM19.797 18.3949C17.217 18.3949 15.357 16.5049 15.357 13.9249C15.357 11.3449 17.217 9.45492 19.797 9.45492C22.377 9.45492 24.267 11.3449 24.267 13.9249C24.267 16.5049 22.377 18.3949 19.797 18.3949Z" fill="black"/>
<path d="M34.1316 21.5749V13.4149C34.1316 11.0449 35.6016 9.54492 37.8216 9.54492C39.9816 9.54492 41.3016 10.9849 41.3016 13.4149V21.5749H44.6316V13.1149C44.6316 9.00492 42.0216 6.39492 38.3316 6.39492C36.5016 6.39492 35.0616 7.05492 34.1316 8.19492V0.874921H30.8016V21.5749H34.1316Z" fill="black"/>
<path d="M55.9894 21.5749V18.4549H53.9495C52.5995 18.4549 52.0294 17.8549 52.0294 16.6849V9.75492H55.9894V6.69492H52.0294V2.97492H48.6995V5.85492C48.6995 6.39492 48.3994 6.69492 47.9494 6.69492H46.2394V9.75492H48.6995V17.0149C48.6995 20.1049 50.3195 21.5749 53.7094 21.5749H55.9894Z" fill="black"/>
</svg>
